<svg width="35" height="34" viewBox="0 0 35 34" fill="none" xmlns="http://www.w3.org/2000/svg">
<g filter="url(#filter0_d_1_44)">
<path d="M29.2959 10.3343L18.573 10.3338C18.0995 10.3338 17.7157 10.699 17.7157 11.1496V14.4096C17.7157 14.8601 18.0995 15.2255 18.573 15.2255H24.6114C23.9502 16.8585 22.7161 18.2262 21.1415 19.0952L23.7163 23.3371C27.8466 21.0638 30.2885 17.075 30.2885 12.6099C30.2885 11.9741 30.2392 11.5196 30.1407 11.0079C30.0659 10.6191 29.7112 10.3343 29.2959 10.3343Z" fill="#167EE6"/>
<path d="M17.1434 20.1236C14.1883 20.1236 11.6086 18.587 10.223 16.3132L5.76599 18.758C8.03415 22.4992 12.2831 25.0185 17.1434 25.0185C19.5278 25.0185 21.7775 24.4075 23.7156 23.3428V23.337L21.1408 19.0951C19.9631 19.7452 18.6002 20.1236 17.1434 20.1236Z" fill="#12B347"/>
<path d="M23.7174 23.3428V23.337L21.1426 19.0951C19.9649 19.7451 18.6021 20.1235 17.1453 20.1235V25.0185C19.5296 25.0185 21.7794 24.4075 23.7174 23.3428Z" fill="#0F993E"/>
<path d="M9.14342 12.5093C9.14342 11.1231 9.54093 9.82617 10.2239 8.70537L5.76683 6.2605C4.64191 8.09911 4 10.2344 4 12.5093C4 14.7842 4.64191 16.9195 5.76683 18.7581L10.2239 16.3132C9.54093 15.1924 9.14342 13.8955 9.14342 12.5093Z" fill="#FFD500"/>
<path d="M17.1434 4.89491C19.0705 4.89491 20.8405 5.54657 22.2231 6.63052C22.5642 6.89791 23.0599 6.87861 23.3724 6.58127L25.7994 4.27145C26.1539 3.9341 26.1286 3.38188 25.75 3.06925C23.4336 1.15675 20.4196 -1.52588e-05 17.1434 -1.52588e-05C12.2831 -1.52588e-05 8.03415 2.51928 5.76599 6.26043L10.223 8.7053C11.6086 6.4315 14.1883 4.89491 17.1434 4.89491Z" fill="#FF4B26"/>
<path d="M22.2249 6.63052C22.566 6.89791 23.0618 6.87861 23.3742 6.58127L25.8012 4.27145C26.1557 3.9341 26.1304 3.38188 25.7518 3.06925C23.4354 1.1567 20.4214 -1.52588e-05 17.1453 -1.52588e-05V4.89491C19.0722 4.89491 20.8424 5.54657 22.2249 6.63052Z" fill="#D93F21"/>
</g>
<defs>
<filter id="filter0_d_1_44" x="0" y="-1.52588e-05" width="34.2885" height="33.0185" filterUnits="userSpaceOnUse" color-interpolation-filters="sRGB">
<feFlood flood-opacity="0" result="BackgroundImageFix"/>
<feColorMatrix in="SourceAlpha" type="matrix" values="0 0 0 0 0 0 0 0 0 0 0 0 0 0 0 0 0 0 127 0" result="hardAlpha"/>
<feOffset dy="4"/>
<feGaussianBlur stdDeviation="2"/>
<feComposite in2="hardAlpha" operator="out"/>
<feColorMatrix type="matrix" values="0 0 0 0 0 0 0 0 0 0 0 0 0 0 0 0 0 0 0.25 0"/>
<feBlend mode="normal" in2="BackgroundImageFix" result="effect1_dropShadow_1_44"/>
<feBlend mode="normal" in="SourceGraphic" in2="effect1_dropShadow_1_44" result="shape"/>
</filter>
</defs>
</svg>